<?xml version="1.0" standalone="no"?>
<!DOCTYPE svg PUBLIC "-//W3C//DTD SVG 20010904//EN"
 "http://www.w3.org/TR/2001/REC-SVG-20010904/DTD/svg10.dtd">
<svg version="1.0" xmlns="http://www.w3.org/2000/svg"
 width="264.000000pt" height="306.000000pt" viewBox="0 0 264.000000 306.000000"
 preserveAspectRatio="xMidYMid meet">

<g transform="translate(0.000000,306.000000) scale(0.100000,-0.100000)"
fill="#000000" stroke="none">
<path d="M1812 2818 c-11 -15 -32 -84 -32 -109 0 -23 30 -33 47 -16 16 16 42
106 36 125 -3 6 -13 12 -23 12 -9 0 -22 -6 -28 -12z"/>
<path d="M1342 2768 c-18 -18 -15 -29 18 -81 31 -49 62 -62 74 -31 8 20 -45
118 -65 122 -8 1 -20 -3 -27 -10z"/>
<path d="M1590 2638 c-138 -21 -322 -161 -289 -221 15 -27 30 -21 83 33 64 67
135 106 217 121 251 45 477 -182 430 -433 -22 -123 -84 -212 -225 -323 -45
-36 -92 -83 -104 -104 l-22 -39 -53 15 c-28 9 -56 19 -61 23 -4 5 -3 25 4 45
10 32 10 39 -4 53 -21 22 -46 7 -60 -35 -6 -18 -14 -34 -17 -38 -4 -3 -32 1
-63 10 l-56 16 0 47 c0 27 -16 93 -39 161 -22 64 -42 143 -46 176 -6 66 -14
79 -41 73 -17 -3 -19 -13 -18 -86 l1 -82 -56 83 c-43 63 -64 85 -91 94 -50 17
-950 17 -1000 0 -26 -9 -41 -23 -57 -57 l-23 -44 0 -903 0 -903 1008 0 c1082
1 1067 0 1102 51 8 13 110 255 227 538 226 549 231 566 193 629 -28 46 -73 62
-175 62 l-85 0 0 158 c0 127 -3 162 -16 180 -25 36 -68 52 -139 52 l-66 0 15
28 c24 47 38 113 38 188 1 270 -239 473 -512 432z m-451 -591 c54 -80 82 -113
106 -123 61 -25 69 -90 29 -231 l-27 -93 -354 0 c-380 0 -392 -1 -425 -52 -8
-13 -98 -234 -199 -493 l-184 -469 -3 773 c-1 567 1 777 9 787 10 12 95 14
493 12 l481 -3 74 -108z m1049 -149 c8 -8 12 -57 12 -155 l0 -143 -99 0 -98 0
4 25 c8 37 -41 115 -71 115 -37 0 -39 -27 -7 -86 l29 -54 -114 0 -114 0 10 25
c23 61 44 86 129 153 49 39 100 85 112 101 22 30 24 31 109 31 54 0 91 -5 98
-12z m-673 -249 c101 -29 145 -46 145 -57 0 -10 -6 -12 -17 -7 -10 4 -70 11
-133 15 -128 9 -184 24 -176 47 3 8 6 21 6 29 0 21 17 18 175 -27z m947 -146
c10 -9 18 -24 18 -33 0 -20 -416 -1039 -432 -1057 -8 -10 -216 -13 -979 -13
-533 0 -969 1 -969 3 1 14 430 1089 439 1101 12 14 109 16 959 16 866 0 947
-1 964 -17z"/>
<path d="M1103 1933 c-46 -26 -56 -55 -25 -72 13 -7 31 -3 67 17 39 21 50 32
50 52 0 34 -37 36 -92 3z"/>
<path d="M2190 2532 c-40 -14 -90 -54 -90 -72 0 -32 29 -35 77 -9 54 29 65 42
57 62 -7 19 -24 26 -44 19z"/>
<path d="M1053 2403 c-7 -3 -13 -15 -13 -29 0 -20 8 -26 56 -40 30 -8 62 -13
70 -10 16 6 19 42 3 52 -19 11 -104 31 -116 27z"/>
<path d="M1253 2343 c-17 -6 -16 -38 1 -52 22 -18 48 -2 44 28 -3 25 -20 35
-45 24z"/>
<path d="M1516 2197 c-31 -23 -16 -50 37 -66 51 -16 51 -15 31 -82 -2 -9 3
-24 11 -33 23 -23 53 -4 61 39 7 38 17 41 70 26 37 -10 64 2 64 29 0 25 -4 27
-119 60 -54 15 -107 31 -118 34 -10 3 -27 0 -37 -7z"/>
<path d="M2151 2077 c-20 -25 -1 -46 56 -62 42 -12 58 -13 69 -4 23 19 16 39
-18 53 -58 24 -94 28 -107 13z"/>
<path d="M1562 1941 c-8 -4 -12 -19 -10 -32 2 -18 9 -24 28 -24 19 0 26 6 28
24 3 20 -11 41 -28 41 -3 0 -11 -4 -18 -9z"/>
</g>
</svg>
